<svg id="bb3d4133-6f0e-4a1a-9dbe-ff2d0566bb0a" data-name="Layer 1" xmlns="http://www.w3.org/2000/svg" xmlns:xlink="http://www.w3.org/1999/xlink" viewBox="0 0 478.9 127.5"><defs><style>.a9bb9388-edb5-478c-bb49-05890485c489{fill:none;}.acd48061-fff0-41ca-bee7-d1e38675e6c1{clip-path:url(#b6fdd7a6-47d4-4b21-86ea-315c8b0dee75);}.b98890d7-b0de-429d-b2fb-e5c5c2ecb3fd{fill:#ef683e;}</style><clipPath id="b6fdd7a6-47d4-4b21-86ea-315c8b0dee75"><rect class="a9bb9388-edb5-478c-bb49-05890485c489" x="3.3" y="3.5" width="472.3" height="120.6"/></clipPath></defs><g id="a11d5a71-6c19-4823-b07e-74ec5de73848" data-name="Chaser logo orange"><g class="acd48061-fff0-41ca-bee7-d1e38675e6c1"><g class="acd48061-fff0-41ca-bee7-d1e38675e6c1"><path class="b98890d7-b0de-429d-b2fb-e5c5c2ecb3fd" d="M11.5,116.6c-5.4-5-8.2-12.1-8.2-21.3v-63c0-9.1,2.7-16.2,8.2-21.2S24.9,3.6,35.3,3.5,53.6,6,59.1,11s8.2,12.1,8.2,21.3v9a2.9,2.9,0,0,1-3,3H49.7a2.9,2.9,0,0,1-3-3V31.2c0-7.2-3.6-10.9-10.8-10.9S25.1,23.9,25,31.2V96.6c0,7.1,3.6,10.7,10.9,10.7s10.8-3.6,10.8-10.7V81.7a2.9,2.9,0,0,1,3-3H64.2a2.9,2.9,0,0,1,3,3V95.3c0,9.2-2.7,16.2-8.2,21.3s-13.4,7.5-23.8,7.5-18.3-2.5-23.7-7.5"/><path class="b98890d7-b0de-429d-b2fb-e5c5c2ecb3fd" d="M87.9,5.3h15.7a2.9,2.9,0,0,1,3,3V53h23.3V8.3a2.9,2.9,0,0,1,3-3h15.7a2.9,2.9,0,0,1,3,3V119.4a2.9,2.9,0,0,1-3,3H132.9a2.9,2.9,0,0,1-3-3V69.7H106.6v49.7a2.9,2.9,0,0,1-3,3H87.9a2.9,2.9,0,0,1-3-3V8.3a3,3,0,0,1,3-3"/><path class="b98890d7-b0de-429d-b2fb-e5c5c2ecb3fd" d="M191.7,5.3h24.4a3,3,0,0,1,3,2.4l21.3,111.1a3,3,0,0,1-2.4,3.5H221.9a2.9,2.9,0,0,1-3-2.5l-3.5-20.8v.3H190.8l-3.5,20.4a3,3,0,0,1-3,2.5h-14a3,3,0,0,1-3-3,1.3,1.3,0,0,1,.1-.6L188.8,7.6a3,3,0,0,1,2.9-2.3m21.2,78.3-9.7-45.2h-.4l-9.5,45.2Z"/><path class="b98890d7-b0de-429d-b2fb-e5c5c2ecb3fd" d="M260.1,116.5c-5.4-5.1-8.1-12.3-8.1-21.8V91a2.9,2.9,0,0,1,3-3h14.5a2.9,2.9,0,0,1,3,3v2.8c0,7.6,3.7,11.4,11.2,11.4,3.7,0,6.5-.9,8.4-2.8s2.9-4.8,2.9-9-1.3-7-3.9-10.7-7.5-8.2-14.6-13.5c-8.9-6.7-15.2-12.7-18.7-18.2a32.1,32.1,0,0,1-5.3-18.3c0-9.3,2.8-16.4,8.3-21.5s13.5-7.6,24.1-7.6,18.2,2.5,23.6,7.6,8,12.4,8,21.8v1.8a2.9,2.9,0,0,1-3,3H299a2.9,2.9,0,0,1-3-3V34c0-4-.9-6.9-2.8-8.8s-4.5-2.8-8.1-2.8c-7.2,0-10.8,3.7-10.8,11.2,0,4.2,1.3,5.9,4,9.6s7.6,8.1,14.7,13.4c9.1,6.7,15.3,12.8,18.7,18.2A35.3,35.3,0,0,1,316.8,94c0,9.6-2.8,17-8.4,22.1s-13.7,7.7-24.4,7.7-18.6-2.2-23.9-7.3"/><path class="b98890d7-b0de-429d-b2fb-e5c5c2ecb3fd" d="M336.8,5.3H390a2.9,2.9,0,0,1,3,3V19a2.9,2.9,0,0,1-3,3H355.5V53h26.8a2.9,2.9,0,0,1,3,3V66.8a2.9,2.9,0,0,1-3,3H355.5v36H390a2.9,2.9,0,0,1,3,3v10.7a2.9,2.9,0,0,1-3,3H336.8a2.9,2.9,0,0,1-3-3V8.3a2.9,2.9,0,0,1,3-3"/><path class="b98890d7-b0de-429d-b2fb-e5c5c2ecb3fd" d="M410.1,8.3a2.9,2.9,0,0,1,3-3h29.2c11.2,0,19.3,2.2,24.5,6.6s7.7,11.2,7.7,20.3v7.2c0,12.2-4.7,19.9-14.2,23.1v.3c5.3,1.3,9,4.1,11.1,8.2s3.3,9.6,3.2,16.6v20.6a73.2,73.2,0,0,0,.4,8.1,9.5,9.5,0,0,0,.5,2.3,2.9,2.9,0,0,1-2.1,3.7H457a2.9,2.9,0,0,1-2.8-2,19.8,19.8,0,0,1-.8-3.3,67.8,67.8,0,0,1-.4-9V86.6c0-5.3-1-9.1-3.1-11.2s-5.6-3.2-10.5-3.2h-7.5v47.2a2.9,2.9,0,0,1-3,3H413.2a2.9,2.9,0,0,1-3-3V8.3Zm29.6,47.2c4.3,0,7.6-.9,9.8-2.8s3.3-5.1,3.3-9.5v-9c0-4.2-.9-7.3-2.7-9.2s-4.6-2.8-8.4-2.8h-9.9V55.6h7.9Z"/></g></g></g></svg>